<?xml version="1.0" standalone="no"?>
<!DOCTYPE svg PUBLIC "-//W3C//DTD SVG 20010904//EN" "http://www.w3.org/TR/2001/REC-SVG-20010904/DTD/svg10.dtd">
<svg xmlns="http://www.w3.org/2000/svg" version="1.0" width="512.000000pt" height="512.000000pt" viewBox="0 0 512.000000 512.000000" preserveAspectRatio="xMidYMid meet">
<metadata>
Created by potrace 1.16, written by Peter Selinger 2001-2019
<meta name="Producer" content="Online-Convert"/></metadata>
<g transform="translate(0.000000,512.000000) scale(0.100000,-0.100000)" fill="#000000" stroke="none">
<path d="M790 4645 c-7 -8 -23 -15 -36 -15 -13 0 -24 -5 -24 -11 0 -16 -26 -39 -45 -39 -8 0 -18 -7 -21 -15 -4 -8 -13 -15 -21 -15 -19 0 -45 -26 -63 -66 -9 -18 -28 -42 -43 -54 -15 -12 -27 -30 -27 -40 0 -10 -4 -22 -10 -25 -14 -8 -13 -252 0 -257 6 -2 11 -20 12 -40 1 -22 5 -35 11 -31 6 4 8 0 4 -10 -3 -9 -2 -19 4 -22 5 -4 8 -1 7 6 -2 7 5 15 15 17 13 3 17 -3 17 -22 0 -14 4 -26 8 -26 5 0 28 -18 53 -40 24 -22 51 -40 60 -40 9 0 22 -7 29 -15 7 -8 24 -15 39 -15 15 0 32 -5 38 -11 23 -23 259 3 298 32 48 37 130 119 148 148 49 80 72 240 42 297 -8 16 -15 39 -15 52 0 12 -4 22 -10 22 -5 0 -10 18 -10 40 0 22 -4 40 -9 40 -6 0 -18 14 -28 30 -9 17 -23 30 -30 30 -7 0 -13 7 -13 15 0 16 -8 18 -52 15 -24 -1 -28 2 -28 24 0 26 -6 30 -48 26 -12 -1 -25 6 -28 14 -9 23 -205 23 -224 1z"/>
<path d="M2375 4300 c-3 -5 -32 -10 -64 -10 -35 0 -65 -6 -77 -15 -10 -8 -33 -15 -50 -15 -16 0 -39 -7 -50 -15 -10 -8 -28 -15 -39 -15 -12 0 -25 -4 -30 -9 -6 -5 -26 -11 -45 -13 -21 -2 -34 -8 -33 -15 2 -9 -10 -13 -37 -13 -27 0 -43 -5 -46 -15 -4 -9 -19 -15 -39 -15 -19 0 -37 -4 -40 -10 -3 -5 -15 -10 -25 -10 -10 0 -23 -6 -27 -14 -4 -8 -21 -16 -38 -18 -19 -2 -33 -11 -40 -25 -5 -12 -20 -24 -32 -28 -13 -3 -23 -10 -23 -15 0 -6 -7 -10 -15 -10 -8 0 -15 -7 -15 -15 0 -11 -11 -15 -40 -15 -22 0 -40 -4 -40 -10 0 -5 -7 -10 -15 -10 -8 0 -15 -7 -15 -15 0 -8 -7 -15 -15 -15 -8 0 -15 -7 -15 -15 0 -8 -4 -15 -10 -15 -5 0 -10 -5 -10 -11 0 -19 -28 -39 -54 -39 -16 0 -26 -6 -26 -15 0 -8 -7 -15 -15 -15 -8 0 -15 -4 -15 -10 0 -5 -7 -10 -15 -10 -8 0 -15 -7 -15 -15 0 -8 -4 -15 -10 -15 -5 0 -10 -7 -10 -15 0 -8 -7 -15 -15 -15 -9 0 -15 -9 -15 -25 0 -20 -5 -25 -25 -25 -16 0 -25 -6 -25 -15 0 -8 -7 -15 -15 -15 -8 0 -15 -4 -15 -10 0 -5 -7 -10 -15 -10 -8 0 -15 -7 -15 -15 0 -8 -4 -15 -10 -15 -5 0 -10 -7 -10 -15 0 -8 -7 -15 -15 -15 -8 0 -15 -7 -15 -15 0 -8 -4 -15 -8 -15 -5 0 -17 -16 -28 -35 -10 -19 -24 -35 -31 -35 -7 0 -13 -6 -13 -14 0 -8 -7 -16 -15 -20 -8 -3 -15 -15 -15 -26 0 -11 -4 -20 -10 -20 -5 0 -10 -13 -10 -30 0 -20 -5 -30 -15 -30 -9 0 -15 -9 -15 -25 0 -16 -6 -25 -15 -25 -9 0 -15 -9 -15 -24 0 -18 -6 -25 -22 -28 -17 -2 -24 -11 -26 -30 -2 -16 -7 -28 -12 -28 -8 0 -40 -89 -40 -114 0 -9 -7 -16 -15 -16 -12 0 -15 -13 -15 -55 0 -42 -3 -55 -15 -55 -11 0 -15 -11 -15 -40 0 -22 -4 -40 -10 -40 -5 0 -10 -6 -10 -14 0 -7 -7 -19 -15 -26 -8 -7 -15 -23 -15 -35 0 -12 -7 -28 -15 -35 -11 -9 -15 -33 -15 -86 0 -40 -5 -76 -10 -79 -8 -5 -7 -11 1 -21 9 -11 9 -18 1 -26 -15 -15 -17 -518 -2 -518 13 0 13 -47 0 -55 -8 -5 -8 -11 -1 -19 6 -7 11 -36 12 -64 1 -29 6 -52 11 -52 5 0 7 4 3 9 -3 5 -1 12 4 15 5 3 9 -23 10 -60 1 -53 5 -71 26 -98 14 -18 25 -43 25 -54 0 -13 6 -22 15 -22 11 0 15 -12 15 -45 0 -34 3 -43 14 -39 10 4 14 -4 14 -32 0 -20 5 -40 11 -44 6 -3 12 -23 13 -43 1 -37 12 -52 52 -72 14 -7 22 -22 24 -43 2 -20 9 -32 18 -32 9 0 14 -11 14 -31 0 -24 4 -30 15 -25 8 3 15 1 15 -4 0 -5 -8 -11 -18 -13 -10 -3 -6 -5 11 -6 24 -1 27 -5 27 -34 0 -36 28 -67 60 -67 14 0 20 -7 20 -21 0 -11 -4 -17 -10 -14 -5 3 -10 -1 -10 -10 0 -9 4 -14 9 -11 12 8 41 -4 41 -16 0 -6 -8 -4 -17 3 -16 13 -17 12 -4 -3 7 -10 21 -18 30 -18 9 0 25 -14 36 -32 10 -18 29 -42 42 -54 13 -12 23 -26 23 -33 0 -6 11 -11 25 -11 16 0 25 -6 25 -15 0 -8 5 -15 11 -15 15 0 49 -39 49 -57 0 -7 7 -13 15 -13 13 0 19 -11 17 -31 -1 -3 12 -3 28 -1 18 3 35 -3 48 -15 46 -42 74 -63 87 -63 7 0 15 -7 19 -15 3 -8 14 -15 24 -15 10 0 25 -11 32 -25 7 -14 19 -25 26 -25 16 0 74 -33 74 -42 0 -5 8 -8 19 -8 10 0 24 -7 31 -15 7 -8 25 -15 41 -15 19 0 29 -5 29 -15 0 -10 11 -15 35 -15 19 0 35 -4 35 -10 0 -5 13 -10 29 -10 16 0 34 -7 41 -15 7 -8 21 -15 32 -15 11 0 32 -8 46 -19 15 -10 45 -22 67 -26 22 -4 45 -10 50 -15 6 -4 36 -11 67 -14 32 -4 60 -12 63 -17 7 -10 68 -12 103 -3 28 8 30 44 2 51 -11 3 -17 10 -14 15 4 6 -2 5 -14 -1 -28 -15 -35 -14 -28 4 4 12 -3 15 -30 15 -19 0 -33 3 -31 8 3 4 -7 16 -21 26 -15 12 -22 14 -17 5 7 -12 6 -12 -9 0 -10 8 -33 14 -52 13 -24 -2 -34 2 -34 12 0 7 -11 17 -25 20 -14 4 -25 11 -25 16 0 6 -7 10 -15 10 -13 0 -18 14 -17 40 0 3 -6 11 -14 18 -8 7 -14 8 -14 3 0 -5 -8 -11 -17 -13 -18 -4 -83 54 -83 73 0 5 -7 9 -15 9 -8 0 -15 7 -15 15 0 8 -4 15 -10 15 -5 0 -10 6 -10 14 0 8 -9 21 -20 29 -11 8 -18 16 -15 19 3 3 -13 13 -35 24 -22 10 -40 25 -40 32 0 6 -7 12 -15 12 -8 0 -15 7 -15 15 0 8 -4 15 -10 15 -5 0 -10 6 -10 14 0 9 -7 12 -20 9 -21 -6 -70 32 -70 55 0 6 -4 12 -10 12 -5 0 -10 9 -10 20 0 11 -7 23 -15 26 -8 4 -15 13 -15 20 0 8 -7 17 -15 20 -8 4 -15 15 -15 25 0 11 -11 24 -25 31 -16 7 -25 19 -25 34 0 12 -7 24 -15 28 -8 3 -15 15 -15 26 0 11 -4 20 -10 20 -5 0 -10 16 -10 35 0 23 -5 35 -14 35 -8 0 -16 16 -20 40 -3 22 -11 40 -16 40 -6 0 -10 10 -10 23 0 13 -11 34 -25 47 -19 17 -25 34 -25 64 0 23 -7 50 -15 60 -8 11 -15 38 -15 61 0 23 -5 46 -12 53 -7 7 -14 64 -18 145 -3 73 -10 138 -14 145 -9 15 10 268 25 332 6 25 15 68 19 95 16 93 31 145 65 213 18 37 47 103 66 147 37 90 97 193 142 245 17 19 43 54 58 78 29 47 66 89 115 133 16 15 47 46 69 69 22 24 58 54 80 68 22 14 68 49 102 78 57 48 155 101 348 189 144 65 230 87 425 107 193 20 579 7 588 -21 2 -6 23 -11 46 -11 23 0 51 -6 62 -14 11 -8 38 -16 60 -18 31 -2 40 -7 42 -24 2 -16 8 -20 23 -17 10 3 29 -1 42 -10 12 -8 37 -18 55 -21 17 -4 32 -11 32 -16 0 -4 16 -11 35 -14 19 -4 35 -11 35 -16 0 -6 9 -10 19 -10 11 0 26 -7 35 -15 8 -8 22 -15 30 -15 9 0 16 -7 16 -15 0 -8 9 -15 20 -15 11 0 20 -5 20 -10 0 -6 17 -18 38 -28 20 -9 43 -22 49 -29 7 -6 17 -13 23 -15 8 -3 17 -32 19 -65 1 -7 6 -13 12 -13 5 0 7 4 4 10 -4 6 2 7 16 2 26 -10 158 -114 159 -125 0 -4 11 -18 24 -30 13 -12 26 -32 30 -44 4 -13 12 -23 17 -23 5 0 9 -13 9 -30 0 -21 5 -30 16 -30 9 0 14 -6 11 -13 -4 -10 3 -12 24 -9 24 4 29 1 29 -16 0 -12 5 -24 10 -27 6 -3 10 -13 10 -21 0 -8 -5 -12 -11 -9 -6 4 -5 -2 3 -14 7 -12 18 -21 25 -21 7 0 13 -10 13 -23 0 -22 31 -57 50 -57 6 0 8 -15 4 -38 -4 -28 -2 -41 10 -51 9 -7 16 -21 16 -31 0 -10 8 -24 18 -31 14 -11 15 -11 5 1 -17 19 -17 35 0 21 8 -6 17 -8 20 -4 4 3 7 -12 7 -35 0 -30 4 -42 15 -42 18 0 29 40 22 78 -19 91 -39 192 -44 222 -3 19 -12 44 -19 55 -8 11 -14 27 -14 36 0 10 -7 31 -15 48 -8 17 -22 45 -30 62 -8 17 -15 37 -15 44 0 8 -9 19 -20 25 -13 7 -20 21 -20 39 0 16 -7 31 -15 35 -8 3 -15 14 -15 25 0 11 -4 23 -10 26 -5 3 -10 15 -10 26 0 11 -7 22 -15 25 -8 4 -15 12 -15 20 0 27 -33 82 -56 93 -13 6 -24 17 -24 26 0 8 -4 15 -10 15 -5 0 -10 5 -10 10 0 6 7 10 15 10 8 0 15 5 15 11 0 6 -7 9 -15 5 -8 -3 -15 -1 -15 4 0 6 -7 10 -15 10 -8 0 -15 7 -15 15 0 9 -7 18 -15 21 -8 4 -15 11 -15 18 0 13 -20 31 -62 59 -35 22 -98 85 -98 97 0 15 -100 110 -115 110 -17 0 -20 16 -5 25 19 12 10 25 -16 25 -20 0 -25 4 -20 16 5 14 1 16 -24 11 -25 -6 -30 -3 -30 13 0 11 -7 20 -16 20 -8 0 -12 5 -9 10 4 6 -10 10 -33 10 -34 0 -43 5 -61 33 -14 22 -21 26 -21 15 0 -10 -5 -18 -11 -18 -6 0 -9 7 -5 15 3 9 0 15 -9 15 -8 0 -17 11 -21 25 -3 13 -9 24 -13 23 -27 -3 -71 4 -71 12 0 5 7 7 15 4 8 -4 15 -1 15 5 0 6 -3 10 -7 10 -31 -5 -83 3 -78 11 4 6 -10 10 -34 10 -23 0 -41 5 -41 11 0 5 5 7 10 4 6 -3 10 -1 10 4 0 6 -21 11 -50 11 -38 0 -50 4 -50 15 0 12 -13 15 -55 15 -42 0 -55 4 -55 15 0 19 -31 35 -68 35 -17 0 -32 6 -36 15 -4 11 -22 15 -69 15 -36 0 -69 5 -76 13 -11 10 -12 9 -6 -3 6 -12 5 -13 -6 -2 -17 15 -604 18 -614 2z"/>
<path d="M3090 3500 c0 -11 7 -14 53 -24 15 -4 27 -13 27 -21 0 -8 8 -15 18 -15 11 0 27 -9 37 -20 10 -11 24 -20 31 -20 7 0 22 -10 33 -21 12 -13 26 -19 36 -15 9 3 18 0 21 -9 4 -8 13 -15 22 -15 8 0 45 -31 83 -70 37 -38 75 -70 83 -70 10 0 16 -9 16 -25 0 -14 1 -28 3 -32 4 -14 65 -73 75 -73 5 0 12 -7 16 -15 3 -8 16 -15 28 -15 21 -1 22 -2 6 -14 -24 -17 -23 -33 2 -41 11 -4 18 -10 15 -15 -6 -10 23 -22 36 -14 5 3 9 -7 9 -21 0 -16 -4 -24 -11 -20 -6 4 -5 -2 3 -14 7 -12 18 -21 25 -21 7 0 13 -11 13 -25 0 -14 5 -25 10 -25 6 0 10 -21 10 -46 0 -25 4 -43 9 -40 11 7 21 -17 21 -50 0 -14 5 -23 12 -21 8 1 15 -15 19 -43 7 -55 25 -100 39 -100 6 0 10 -43 11 -112 0 -62 3 -107 6 -100 7 17 23 5 23 -18 0 -13 -5 -17 -15 -14 -13 5 -15 -12 -15 -120 0 -69 -4 -126 -8 -126 -16 0 -42 -59 -42 -94 0 -25 -4 -36 -15 -36 -10 0 -15 -10 -15 -29 0 -16 -7 -34 -15 -41 -9 -7 -15 -29 -15 -51 0 -22 -4 -39 -9 -39 -5 0 -11 -8 -15 -17 -8 -25 -29 -57 -43 -66 -7 -4 -13 -14 -13 -22 0 -8 -17 -31 -39 -52 -21 -21 -44 -53 -52 -70 -8 -18 -20 -33 -26 -33 -7 0 -13 -6 -13 -14 0 -8 -7 -16 -15 -20 -8 -3 -15 -15 -15 -26 0 -11 -4 -20 -10 -20 -5 0 -10 -7 -10 -15 0 -9 -9 -15 -24 -15 -13 0 -31 -11 -42 -25 -10 -14 -24 -25 -31 -25 -7 0 -13 -7 -13 -15 0 -9 -9 -15 -25 -15 -16 0 -25 -6 -25 -15 0 -8 -8 -15 -18 -15 -10 0 -29 -11 -42 -25 -13 -14 -29 -25 -37 -25 -7 0 -13 -7 -13 -15 0 -9 -9 -15 -25 -15 -14 0 -25 -4 -25 -10 0 -5 -17 -10 -39 -10 -22 0 -44 -6 -51 -15 -8 -9 -30 -15 -56 -15 -32 0 -44 -4 -44 -15 0 -11 -12 -15 -49 -15 -27 0 -51 -4 -53 -10 -4 -13 -464 -14 -460 0 1 6 -19 10 -49 10 -34 0 -48 4 -43 11 5 8 1 8 -14 0 -27 -15 -32 -14 -32 4 0 11 -11 15 -40 15 -29 0 -40 4 -40 15 0 9 -9 15 -24 15 -14 0 -28 5 -31 10 -3 6 -28 10 -56 10 -49 0 -57 7 -50 44 1 5 -5 3 -14 -4 -13 -11 -14 -10 -8 5 5 14 3 17 -10 12 -9 -3 -19 -1 -23 5 -4 6 -3 8 4 4 6 -3 14 -1 18 5 5 9 -4 10 -34 5 -38 -6 -42 -4 -42 14 0 15 -7 20 -25 20 -14 0 -25 5 -25 10 0 6 -6 10 -14 10 -8 0 -16 7 -20 15 -3 8 -12 15 -20 15 -13 0 -31 27 -28 43 1 4 -5 7 -14 7 -8 0 -12 4 -9 10 3 6 -1 7 -9 4 -9 -3 -16 -1 -16 5 0 6 -7 11 -15 11 -8 0 -15 6 -15 13 0 7 -9 21 -21 30 -11 10 -18 25 -15 33 3 8 1 14 -4 14 -6 0 -10 6 -10 14 0 8 -11 17 -25 20 -31 8 -65 36 -65 53 0 8 -11 31 -25 53 -14 22 -25 44 -25 50 0 5 -11 17 -25 26 -15 10 -25 26 -25 40 0 15 -6 24 -15 24 -8 0 -17 11 -20 25 -3 14 -7 36 -10 50 -11 50 -25 24 -25 -45 0 -40 4 -70 10 -70 6 0 10 -12 10 -26 0 -16 -4 -23 -11 -18 -8 5 -8 1 0 -14 6 -11 11 -37 11 -56 0 -25 5 -36 15 -36 11 0 15 -18 17 -77 2 -56 7 -77 16 -75 6 1 11 -1 11 -5 -4 -26 3 -43 18 -43 13 0 14 -3 6 -11 -8 -8 -8 -20 -3 -34 5 -13 7 -25 4 -28 -3 -2 13 -22 36 -44 27 -27 40 -49 40 -66 0 -17 5 -27 15 -27 9 0 15 -9 15 -22 -1 -22 -1 -23 -15 -4 -8 11 -15 16 -15 10 0 -19 16 -33 35 -31 16 2 21 -5 23 -31 2 -18 8 -30 13 -27 5 4 9 -6 9 -22 0 -19 3 -24 9 -14 5 8 16 11 30 6 26 -8 18 -25 -12 -25 -22 -1 -22 -1 -3 -15 11 -8 27 -15 35 -15 9 -1 25 -12 36 -26 46 -59 92 -104 106 -104 8 0 32 -21 54 -47 56 -65 108 -113 123 -113 6 0 12 -4 12 -10 0 -5 9 -10 20 -10 11 0 23 -7 26 -15 4 -8 14 -15 24 -15 10 0 23 -7 30 -15 7 -8 20 -15 30 -15 10 0 20 -7 24 -15 3 -8 17 -15 31 -15 14 0 25 -4 25 -9 0 -5 18 -16 39 -24 22 -9 42 -21 46 -27 3 -5 21 -10 40 -10 20 0 35 -6 39 -15 3 -9 18 -15 40 -15 19 0 37 -4 40 -9 3 -4 35 -11 71 -13 36 -3 72 -11 81 -18 21 -18 523 -18 576 -1 20 7 58 16 84 21 101 18 149 33 213 66 36 19 71 34 78 34 6 0 18 6 25 13 7 6 29 21 48 31 19 11 37 22 40 25 3 3 27 17 54 31 26 14 69 45 95 70 72 68 105 95 122 102 9 4 34 28 55 54 22 27 62 70 89 96 28 25 64 73 80 105 17 31 33 62 38 68 4 5 20 27 36 47 16 21 39 64 51 95 13 32 29 72 35 88 29 67 48 137 76 265 19 90 38 287 33 350 -7 95 -36 273 -46 285 -4 5 -8 28 -8 51 0 24 -6 49 -13 56 -14 14 -35 80 -44 136 -3 17 -9 32 -13 32 -5 0 -11 14 -15 30 -4 17 -11 30 -16 30 -5 0 -9 9 -9 20 0 23 -38 83 -80 126 -16 17 -30 38 -30 47 0 9 -4 19 -10 22 -5 3 -10 15 -10 26 0 10 -7 19 -15 19 -8 0 -15 6 -15 13 0 6 -16 23 -35 37 -19 14 -37 34 -41 45 -14 47 -30 75 -41 75 -7 0 -13 7 -13 15 0 8 -7 15 -16 15 -8 0 -12 5 -9 10 4 6 11 7 17 4 7 -4 8 -2 4 4 -4 7 -23 12 -42 12 -19 0 -34 5 -34 10 0 6 -7 10 -14 10 -13 0 -66 58 -66 73 0 3 8 8 18 10 16 4 16 5 0 6 -10 0 -18 7 -18 14 0 8 -4 7 -11 -3 -8 -11 -12 -12 -16 -2 -2 6 -16 12 -29 12 -13 0 -24 5 -24 10 0 6 -9 21 -21 33 -15 17 -19 18 -14 5 5 -13 2 -18 -9 -18 -9 0 -16 7 -16 15 0 8 -9 15 -19 15 -44 0 -70 30 -38 43 6 3 -7 6 -30 6 -28 1 -43 6 -43 14 0 7 -9 18 -21 25 -12 8 -18 9 -14 3 3 -6 2 -11 -4 -11 -5 0 -11 5 -13 11 -2 5 -22 10 -45 11 -31 0 -40 4 -36 14 5 14 -36 19 -109 14 -28 -2 -38 14 -15 23 6 3 -18 6 -55 7 -98 3 -106 4 -114 13 -11 11 -134 9 -134 -3z"/>
<path d="M3183 2087 c1 -7 -14 -13 -38 -15 -22 -2 -44 -8 -49 -13 -6 -5 -18 -9 -28 -9 -10 0 -18 -7 -18 -15 0 -8 -8 -15 -17 -15 -17 0 -93 -76 -93 -93 0 -5 -7 -15 -15 -23 -12 -12 -15 -43 -15 -140 0 -102 3 -126 15 -130 8 -4 15 -15 15 -26 0 -13 4 -17 13 -12 8 5 8 2 -2 -9 -12 -15 -11 -17 3 -17 9 0 16 -8 16 -19 0 -11 5 -23 12 -27 6 -4 8 -3 5 3 -11 18 26 26 39 9 6 -9 23 -16 38 -16 14 0 26 -4 26 -10 0 -5 12 -10 28 -10 15 0 43 -5 62 -10 41 -12 150 5 190 29 40 25 99 83 119 115 31 54 46 141 33 192 -7 24 -12 55 -12 69 0 14 -3 25 -8 25 -9 0 -48 71 -44 82 1 4 -3 8 -8 8 -5 0 -10 8 -10 18 0 20 -54 42 -103 42 -14 0 -28 6 -30 13 -4 10 -6 10 -6 0 -1 -18 -61 -17 -61 0 0 9 -12 14 -30 15 -18 0 -29 -4 -27 -11z"/>
</g>
</svg>
